<svg width="20" height="22" viewBox="0 0 20 22" fill="none" xmlns="http://www.w3.org/2000/svg">
<g id="calendar-outline">
<g id="Layer 2">
<g id="calendar">
<path id="Vector" d="M16 3.00001H15V2.00001C15 1.73479 14.8946 1.48044 14.7071 1.2929C14.5196 1.10536 14.2652 1.00001 14 1.00001C13.7348 1.00001 13.4804 1.10536 13.2929 1.2929C13.1054 1.48044 13 1.73479 13 2.00001V3.00001H7V2.00001C7 1.73479 6.89464 1.48044 6.70711 1.2929C6.51957 1.10536 6.26522 1.00001 6 1.00001C5.73478 1.00001 5.48043 1.10536 5.29289 1.2929C5.10536 1.48044 5 1.73479 5 2.00001V3.00001H4C3.20435 3.00001 2.44129 3.31608 1.87868 3.87869C1.31607 4.4413 1 5.20436 1 6.00001V18C1 18.7957 1.31607 19.5587 1.87868 20.1213C2.44129 20.6839 3.20435 21 4 21H16C16.7956 21 17.5587 20.6839 18.1213 20.1213C18.6839 19.5587 19 18.7957 19 18V6.00001C19 5.20436 18.6839 4.4413 18.1213 3.87869C17.5587 3.31608 16.7956 3.00001 16 3.00001ZM4 5.00001H5V6.00001C5 6.26522 5.10536 6.51958 5.29289 6.70711C5.48043 6.89465 5.73478 7.00001 6 7.00001C6.26522 7.00001 6.51957 6.89465 6.70711 6.70711C6.89464 6.51958 7 6.26522 7 6.00001V5.00001H13V6.00001C13 6.26522 13.1054 6.51958 13.2929 6.70711C13.4804 6.89465 13.7348 7.00001 14 7.00001C14.2652 7.00001 14.5196 6.89465 14.7071 6.70711C14.8946 6.51958 15 6.26522 15 6.00001V5.00001H16C16.2652 5.00001 16.5196 5.10537 16.7071 5.2929C16.8946 5.48044 17 5.73479 17 6.00001V10H3V6.00001C3 5.73479 3.10536 5.48044 3.29289 5.2929C3.48043 5.10537 3.73478 5.00001 4 5.00001ZM16 19H4C3.73478 19 3.48043 18.8947 3.29289 18.7071C3.10536 18.5196 3 18.2652 3 18V12H17V18C17 18.2652 16.8946 18.5196 16.7071 18.7071C16.5196 18.8947 16.2652 19 16 19Z" fill="white" fill-opacity="0.7" stroke="#282828" stroke-width="0.5"/>
<path id="Vector_2" d="M6 16C6.55228 16 7 15.5523 7 15C7 14.4477 6.55228 14 6 14C5.44772 14 5 14.4477 5 15C5 15.5523 5.44772 16 6 16Z" fill="white" fill-opacity="0.7"/>
<path id="Vector_3" d="M14 14H10C9.73478 14 9.48043 14.1054 9.29289 14.2929C9.10536 14.4804 9 14.7348 9 15C9 15.2652 9.10536 15.5196 9.29289 15.7071C9.48043 15.8946 9.73478 16 10 16H14C14.2652 16 14.5196 15.8946 14.7071 15.7071C14.8946 15.5196 15 15.2652 15 15C15 14.7348 14.8946 14.4804 14.7071 14.2929C14.5196 14.1054 14.2652 14 14 14Z" fill="white" fill-opacity="0.7"/>
</g>
</g>
</g>
</svg>
