<svg width="16" height="16" viewBox="0 0 16 16" fill="none" xmlns="http://www.w3.org/2000/svg">
<g id="vuesax/linear/category">
<g id="category">
<path id="Vector" d="M3.33301 6.66665H4.66634C5.99967 6.66665 6.66634 5.99998 6.66634 4.66665V3.33331C6.66634 1.99998 5.99967 1.33331 4.66634 1.33331H3.33301C1.99967 1.33331 1.33301 1.99998 1.33301 3.33331V4.66665C1.33301 5.99998 1.99967 6.66665 3.33301 6.66665Z" stroke="#C0C0C0" stroke-width="1.5" stroke-miterlimit="10" stroke-linecap="round" stroke-linejoin="round"/>
<path id="Vector_2" d="M11.333 6.66665H12.6663C13.9997 6.66665 14.6663 5.99998 14.6663 4.66665V3.33331C14.6663 1.99998 13.9997 1.33331 12.6663 1.33331H11.333C9.99967 1.33331 9.33301 1.99998 9.33301 3.33331V4.66665C9.33301 5.99998 9.99967 6.66665 11.333 6.66665Z" stroke="#C0C0C0" stroke-width="1.5" stroke-miterlimit="10" stroke-linecap="round" stroke-linejoin="round"/>
<path id="Vector_3" d="M11.333 14.6666H12.6663C13.9997 14.6666 14.6663 14 14.6663 12.6666V11.3333C14.6663 9.99998 13.9997 9.33331 12.6663 9.33331H11.333C9.99967 9.33331 9.33301 9.99998 9.33301 11.3333V12.6666C9.33301 14 9.99967 14.6666 11.333 14.6666Z" stroke="#C0C0C0" stroke-width="1.5" stroke-miterlimit="10" stroke-linecap="round" stroke-linejoin="round"/>
<path id="Vector_4" d="M3.33301 14.6666H4.66634C5.99967 14.6666 6.66634 14 6.66634 12.6666V11.3333C6.66634 9.99998 5.99967 9.33331 4.66634 9.33331H3.33301C1.99967 9.33331 1.33301 9.99998 1.33301 11.3333V12.6666C1.33301 14 1.99967 14.6666 3.33301 14.6666Z" stroke="#C0C0C0" stroke-width="1.5" stroke-miterlimit="10" stroke-linecap="round" stroke-linejoin="round"/>
</g>
</g>
</svg>
