<svg width="20" height="20" viewBox="0 0 20 20" fill="none" xmlns="http://www.w3.org/2000/svg">
<g id="vuesax/linear/dollar-square">
<g id="dollar-square">
<path id="Union" fill-rule="evenodd" clip-rule="evenodd" d="M1.39535 7.2093C1.39535 4.95253 1.85098 3.55429 2.70263 2.70263C3.55429 1.85098 4.95253 1.39535 7.2093 1.39535H12.7907C15.0475 1.39535 16.4457 1.85098 17.2974 2.70263C18.149 3.55429 18.6047 4.95253 18.6047 7.2093V12.7907C18.6047 15.0475 18.149 16.4457 17.2974 17.2974C16.4457 18.149 15.0475 18.6047 12.7907 18.6047H7.2093C4.95253 18.6047 3.55429 18.149 2.70263 17.2974C1.85098 16.4457 1.39535 15.0475 1.39535 12.7907V7.2093ZM7.2093 0C4.81491 0 2.95734 0.474606 1.71597 1.71597C0.474606 2.95734 0 4.81491 0 7.2093V12.7907C0 15.1851 0.474606 17.0427 1.71597 18.284C2.95734 19.5254 4.81491 20 7.2093 20H12.7907C15.1851 20 17.0427 19.5254 18.284 18.284C19.5254 17.0427 20 15.1851 20 12.7907V7.2093C20 4.81491 19.5254 2.95734 18.284 1.71597C17.0427 0.474606 15.1851 0 12.7907 0H7.2093ZM10 3.72095C10.3853 3.72095 10.6977 4.03331 10.6977 4.41862V4.96729H11.0436C12.6047 4.96729 13.8064 6.27945 13.8064 7.8324C13.8064 8.21772 13.494 8.53008 13.1087 8.53008C12.7234 8.53008 12.411 8.21772 12.411 7.8324C12.411 6.98535 11.7709 6.36263 11.0436 6.36263H10.6977V9.50142L12.1139 9.9934C12.5317 10.1415 12.9848 10.3634 13.3194 10.7904C13.6605 11.2255 13.8064 11.7791 13.8064 12.4464C13.8064 13.8435 12.7141 15.0324 11.3041 15.0324H10.6977V15.5814C10.6977 15.9667 10.3853 16.2791 10 16.2791C9.6147 16.2791 9.30234 15.9667 9.30234 15.5814V15.0324H8.96918C7.40809 15.0324 6.20639 13.7202 6.20639 12.1673C6.20639 11.782 6.51875 11.4696 6.90406 11.4696C7.28938 11.4696 7.60174 11.782 7.60174 12.1673C7.60174 13.0143 8.2419 13.6371 8.96918 13.6371H9.30234V10.4938L7.8989 10.0063C7.48109 9.8582 7.02801 9.63624 6.69336 9.20933C6.35223 8.77417 6.20639 8.22061 6.20639 7.55333C6.20639 6.15623 7.29865 4.96729 8.70872 4.96729H9.30234V4.41862C9.30234 4.03331 9.6147 3.72095 10 3.72095ZM8.70872 6.36263H9.30234V9.01668L8.36308 8.69039C8.0473 8.57826 7.8869 8.47017 7.79151 8.34849C7.70241 8.23482 7.60174 8.02094 7.60174 7.55333C7.60174 6.86671 8.12808 6.36263 8.70872 6.36263ZM10.6977 13.6371V10.9786L11.6497 11.3093C11.9655 11.4214 12.1259 11.5295 12.2213 11.6512C12.3104 11.7649 12.411 11.9787 12.411 12.4464C12.411 13.133 11.8847 13.6371 11.3041 13.6371H10.6977Z" fill="white" fill-opacity="0.7"/>
</g>
</g>
</svg>
