<svg width="16" height="16" viewBox="0 0 16 16" fill="none" xmlns="http://www.w3.org/2000/svg">
<g id="Layer 2">
<g id="person">
<path id="Vector" d="M7.99967 7.33333C8.52709 7.33333 9.04266 7.17694 9.48119 6.88392C9.91973 6.5909 10.2615 6.17443 10.4634 5.68716C10.6652 5.19989 10.718 4.66371 10.6151 4.14643C10.5122 3.62914 10.2582 3.15399 9.88529 2.78105C9.51235 2.40811 9.0372 2.15413 8.51992 2.05124C8.00263 1.94835 7.46645 2.00116 6.97918 2.20299C6.49192 2.40482 6.07544 2.74662 5.78242 3.18515C5.48941 3.62368 5.33301 4.13925 5.33301 4.66667C5.33301 5.37391 5.61396 6.05219 6.11406 6.55229C6.61415 7.05238 7.29243 7.33333 7.99967 7.33333ZM7.99967 3.33333C8.26338 3.33333 8.52117 3.41153 8.74043 3.55804C8.9597 3.70455 9.1306 3.91279 9.23151 4.15642C9.33243 4.40006 9.35884 4.66815 9.30739 4.92679C9.25594 5.18543 9.12895 5.42301 8.94248 5.60948C8.75601 5.79595 8.51844 5.92293 8.25979 5.97438C8.00115 6.02583 7.73306 5.99942 7.48943 5.89851C7.2458 5.79759 7.03756 5.62669 6.89105 5.40743C6.74454 5.18816 6.66634 4.93038 6.66634 4.66667C6.66634 4.31305 6.80682 3.97391 7.05687 3.72386C7.30691 3.47381 7.64605 3.33333 7.99967 3.33333Z" fill="#FB8920"/>
<path id="Vector_2" d="M7.99967 8.66669C6.762 8.66669 5.57501 9.15835 4.69984 10.0335C3.82467 10.9087 3.33301 12.0957 3.33301 13.3334C3.33301 13.5102 3.40325 13.6797 3.52827 13.8048C3.65329 13.9298 3.82286 14 3.99967 14C4.17649 14 4.34605 13.9298 4.47108 13.8048C4.5961 13.6797 4.66634 13.5102 4.66634 13.3334C4.66634 12.4493 5.01753 11.6015 5.64265 10.9763C6.26777 10.3512 7.11562 10 7.99967 10C8.88373 10 9.73158 10.3512 10.3567 10.9763C10.9818 11.6015 11.333 12.4493 11.333 13.3334C11.333 13.5102 11.4032 13.6797 11.5283 13.8048C11.6533 13.9298 11.8229 14 11.9997 14C12.1765 14 12.3461 13.9298 12.4711 13.8048C12.5961 13.6797 12.6663 13.5102 12.6663 13.3334C12.6663 12.0957 12.1747 10.9087 11.2995 10.0335C10.4243 9.15835 9.23735 8.66669 7.99967 8.66669Z" fill="#FB8920"/>
</g>
</g>
</svg>
