<svg width="16" height="16" viewBox="0 0 16 16" fill="none" xmlns="http://www.w3.org/2000/svg">
<g id="Layer 2">
<g id="bulb">
<path id="Vector" d="M8.00033 4.66663C7.30072 4.66663 6.61884 4.88675 6.05129 5.29582C5.48374 5.70489 5.05928 6.28216 4.83805 6.94587C4.61681 7.60957 4.61001 8.32607 4.81861 8.99385C5.02721 9.66164 5.44064 10.2469 6.00033 10.6666V13.3333C6.00033 13.6869 6.1408 14.0261 6.39085 14.2761C6.6409 14.5261 6.98004 14.6666 7.33366 14.6666H8.66699C9.02061 14.6666 9.35975 14.5261 9.6098 14.2761C9.85985 14.0261 10.0003 13.6869 10.0003 13.3333V10.6666C10.56 10.2469 10.9734 9.66164 11.182 8.99385C11.3906 8.32607 11.3838 7.60957 11.1626 6.94587C10.9414 6.28216 10.5169 5.70489 9.94936 5.29582C9.38181 4.88675 8.69993 4.66663 8.00033 4.66663ZM9.00033 9.72663C8.89859 9.78536 8.81418 9.86994 8.75564 9.97179C8.69711 10.0736 8.66653 10.1892 8.66699 10.3066V13.3333H7.33366V10.3066C7.33413 10.1892 7.30354 10.0736 7.24501 9.97179C7.18647 9.86994 7.10206 9.78536 7.00033 9.72663C6.69708 9.55155 6.44511 9.29992 6.26962 8.99691C6.09413 8.69389 6.00127 8.35012 6.00033 7.99996C6.00033 7.46953 6.21104 6.96082 6.58611 6.58575C6.96118 6.21067 7.46989 5.99996 8.00033 5.99996C8.53076 5.99996 9.03947 6.21067 9.41454 6.58575C9.78961 6.96082 10.0003 7.46953 10.0003 7.99996C9.99938 8.35012 9.90652 8.69389 9.73103 8.99691C9.55554 9.29992 9.30357 9.55155 9.00033 9.72663Z" fill="#FB8920"/>
<path id="Vector_2" d="M7.99967 4.00004C8.17649 4.00004 8.34605 3.9298 8.47108 3.80478C8.5961 3.67975 8.66634 3.51019 8.66634 3.33337V2.00004C8.66634 1.82323 8.5961 1.65366 8.47108 1.52864C8.34605 1.40361 8.17649 1.33337 7.99967 1.33337C7.82286 1.33337 7.65329 1.40361 7.52827 1.52864C7.40325 1.65366 7.33301 1.82323 7.33301 2.00004V3.33337C7.33301 3.51019 7.40325 3.67975 7.52827 3.80478C7.65329 3.9298 7.82286 4.00004 7.99967 4.00004Z" fill="#FB8920"/>
<path id="Vector_3" d="M14 7.33337H12.6667C12.4899 7.33337 12.3203 7.40361 12.1953 7.52864C12.0702 7.65366 12 7.82323 12 8.00004C12 8.17685 12.0702 8.34642 12.1953 8.47145C12.3203 8.59647 12.4899 8.66671 12.6667 8.66671H14C14.1768 8.66671 14.3464 8.59647 14.4714 8.47145C14.5964 8.34642 14.6667 8.17685 14.6667 8.00004C14.6667 7.82323 14.5964 7.65366 14.4714 7.52864C14.3464 7.40361 14.1768 7.33337 14 7.33337Z" fill="#FB8920"/>
<path id="Vector_4" d="M3.33301 7.33337H1.99967C1.82286 7.33337 1.65329 7.40361 1.52827 7.52864C1.40325 7.65366 1.33301 7.82323 1.33301 8.00004C1.33301 8.17685 1.40325 8.34642 1.52827 8.47145C1.65329 8.59647 1.82286 8.66671 1.99967 8.66671H3.33301C3.50982 8.66671 3.67939 8.59647 3.80441 8.47145C3.92944 8.34642 3.99967 8.17685 3.99967 8.00004C3.99967 7.82323 3.92944 7.65366 3.80441 7.52864C3.67939 7.40361 3.50982 7.33337 3.33301 7.33337Z" fill="#FB8920"/>
<path id="Vector_5" d="M5.10649 4.27996L4.14649 3.3333C4.01654 3.21041 3.84309 3.14419 3.66431 3.14919C3.48552 3.15419 3.31605 3.23001 3.19316 3.35996C3.07028 3.48992 3.00405 3.66337 3.00905 3.84215C3.01405 4.02094 3.08987 4.19041 3.21983 4.3133L4.17983 5.23996C4.24425 5.30217 4.32055 5.35076 4.40416 5.38283C4.48778 5.4149 4.577 5.4298 4.6665 5.42663C4.7563 5.42629 4.84511 5.40781 4.92759 5.37229C5.01007 5.33678 5.08453 5.28497 5.14649 5.21996C5.2655 5.08984 5.3281 4.91788 5.3206 4.7417C5.31311 4.56553 5.23612 4.39951 5.10649 4.27996Z" fill="#FB8920"/>
<path id="Vector_6" d="M12.7931 3.36671C12.6682 3.24255 12.4992 3.17285 12.3231 3.17285C12.147 3.17285 11.978 3.24255 11.8531 3.36671L10.8931 4.28005C10.7689 4.40496 10.6992 4.57392 10.6992 4.75005C10.6992 4.92617 10.7689 5.09514 10.8931 5.22005C10.955 5.28505 11.0295 5.33686 11.112 5.37237C11.1945 5.40789 11.2833 5.42637 11.3731 5.42671C11.5447 5.42603 11.7095 5.35917 11.8331 5.24005L12.7931 4.31338C12.8556 4.2514 12.9052 4.17767 12.939 4.09643C12.9729 4.01519 12.9903 3.92805 12.9903 3.84005C12.9903 3.75204 12.9729 3.6649 12.939 3.58366C12.9052 3.50242 12.8556 3.42869 12.7931 3.36671Z" fill="#FB8920"/>
</g>
</g>
</svg>
