<svg width="20" height="20" viewBox="0 0 20 20" fill="none" xmlns="http://www.w3.org/2000/svg">
<g id="Group">
<path id="Vector" d="M9.16699 1.66667C13.307 1.66667 16.667 5.02667 16.667 9.16667C16.667 13.3067 13.307 16.6667 9.16699 16.6667C5.02699 16.6667 1.66699 13.3067 1.66699 9.16667C1.66699 5.02667 5.02699 1.66667 9.16699 1.66667ZM9.16699 15C12.3895 15 15.0003 12.3892 15.0003 9.16667C15.0003 5.94334 12.3895 3.33334 9.16699 3.33334C5.94366 3.33334 3.33366 5.94334 3.33366 9.16667C3.33366 12.3892 5.94366 15 9.16699 15ZM16.2378 15.0592L18.5953 17.4158L17.4162 18.595L15.0595 16.2375L16.2378 15.0592Z" fill="#DBDBDB"/>
</g>
</svg>
