<svg width="20" height="20" viewBox="0 0 20 20" fill="none" xmlns="http://www.w3.org/2000/svg">
<g id="vuesax/linear/people">
<g id="people">
<g id="Group">
<path id="Vector" d="M15.0004 5.96667C14.9504 5.95834 14.8921 5.95834 14.8421 5.96667C13.6921 5.92501 12.7754 4.98334 12.7754 3.81667C12.7754 2.62501 13.7337 1.66667 14.9254 1.66667C16.1171 1.66667 17.0754 2.63334 17.0754 3.81667C17.0671 4.98334 16.1504 5.92501 15.0004 5.96667Z" stroke="white" stroke-opacity="0.7" stroke-width="1.5" stroke-linecap="round" stroke-linejoin="round"/>
<path id="Vector_2" d="M14.1422 12.0335C15.2839 12.2251 16.5422 12.0251 17.4255 11.4335C18.6005 10.6501 18.6005 9.36681 17.4255 8.58347C16.5339 7.99181 15.2589 7.7918 14.1172 7.9918" stroke="white" stroke-opacity="0.7" stroke-width="1.5" stroke-linecap="round" stroke-linejoin="round"/>
</g>
<g id="Group_2">
<path id="Vector_3" d="M4.97539 5.96667C5.02539 5.95834 5.08372 5.95834 5.13372 5.96667C6.28372 5.92501 7.20039 4.98334 7.20039 3.81667C7.20039 2.62501 6.24206 1.66667 5.05039 1.66667C3.85873 1.66667 2.90039 2.63334 2.90039 3.81667C2.90872 4.98334 3.82539 5.92501 4.97539 5.96667Z" stroke="white" stroke-opacity="0.7" stroke-width="1.5" stroke-linecap="round" stroke-linejoin="round"/>
<path id="Vector_4" d="M5.83353 12.0334C4.69186 12.225 3.43353 12.025 2.5502 11.4334C1.3752 10.65 1.3752 9.36669 2.5502 8.58335C3.44186 7.99169 4.71686 7.79168 5.85853 7.99168" stroke="white" stroke-opacity="0.7" stroke-width="1.5" stroke-linecap="round" stroke-linejoin="round"/>
</g>
<g id="Group_3">
<path id="Vector_5" d="M10.0004 12.1914C9.95039 12.1831 9.89206 12.1831 9.84206 12.1914C8.69206 12.1498 7.77539 11.2081 7.77539 10.0414C7.77539 8.84977 8.73372 7.89143 9.92539 7.89143C11.1171 7.89143 12.0754 8.8581 12.0754 10.0414C12.0671 11.2081 11.1504 12.1581 10.0004 12.1914Z" stroke="white" stroke-opacity="0.7" stroke-width="1.5" stroke-linecap="round" stroke-linejoin="round"/>
<path id="Vector_6" d="M7.57461 14.8164C6.39961 15.5998 6.39961 16.8831 7.57461 17.6664C8.90794 18.5581 11.0913 18.5581 12.4246 17.6664C13.5996 16.8831 13.5996 15.5998 12.4246 14.8164C11.0996 13.9331 8.90794 13.9331 7.57461 14.8164Z" stroke="white" stroke-opacity="0.7" stroke-width="1.5" stroke-linecap="round" stroke-linejoin="round"/>
</g>
</g>
</g>
</svg>
