<svg width="22" height="20" viewBox="0 0 22 20" fill="none" xmlns="http://www.w3.org/2000/svg">
<path id="Vector" d="M3.72727 15.3837V9.05524M7.36364 15.3837V9.05524M11 15.3837V9.05524M14.6364 15.3837V9.05524M18.2727 15.3837V9.05524M1 19H21M11.3364 1.05424L19.5182 4.30887C19.8364 4.43544 20.0909 4.81514 20.0909 5.14965V8.15117C20.0909 8.64841 19.6818 9.05524 19.1818 9.05524H2.81818C2.31818 9.05524 1.90909 8.64841 1.90909 8.15117V5.14965C1.90909 4.81514 2.16364 4.43544 2.48182 4.30887L10.6636 1.05424C10.8455 0.981919 11.1545 0.981919 11.3364 1.05424ZM20.0909 19H1.90909V16.2878C1.90909 15.7906 2.31818 15.3837 2.81818 15.3837H19.1818C19.6818 15.3837 20.0909 15.7906 20.0909 16.2878V19ZM12.3636 5.43896C12.3636 6.18791 11.7531 6.79506 11 6.79506C10.2469 6.79506 9.63636 6.18791 9.63636 5.43896C9.63636 4.69 10.2469 4.08285 11 4.08285C11.7531 4.08285 12.3636 4.69 12.3636 5.43896Z" stroke="white" stroke-width="1.5" stroke-miterlimit="10" stroke-linecap="round" stroke-linejoin="round"/>
</svg>
